<?xml version="1.0" encoding="UTF-8"?>
<svg id="_圖層_1" data-name="圖層 1" xmlns="http://www.w3.org/2000/svg" version="1.1" viewBox="0 0 158.2 154.81">
  <defs>
    <style>
      .cls-1 {
        fill: #dedede;
      }

      .cls-1, .cls-2, .cls-3, .cls-4, .cls-5, .cls-6, .cls-7 {
        stroke-width: 0px;
      }

      .cls-2 {
        fill: #505051;
      }

      .cls-3 {
        fill: #232326;
      }

      .cls-4 {
        fill: #000;
      }

      .cls-5 {
        fill: red;
      }

      .cls-6 {
        fill: #434344;
      }

      .cls-7 {
        fill: #fff;
      }
    </style>
  </defs>
  <g>
    <g>
      <polygon class="cls-5" points="144.21 20.45 141.5 20.45 141.5 23.16 144.21 23.16 146.92 23.16 146.92 20.45 144.21 20.45"/>
      <polygon class="cls-5" points="133.36 12.31 133.36 15.02 136.07 15.02 136.07 12.31 136.07 9.6 133.36 9.6 133.36 12.31"/>
      <rect class="cls-5" x="138.78" y="15.02" width="2.71" height="2.71"/>
      <rect class="cls-5" x="141.5" y="12.31" width="2.71" height="2.71"/>
      <rect class="cls-5" x="127.93" y="15.02" width="2.71" height="2.71"/>
      <rect class="cls-5" x="125.22" y="12.31" width="2.71" height="2.71"/>
      <rect class="cls-5" x="127.93" y="25.87" width="2.71" height="2.71"/>
      <rect class="cls-5" x="125.22" y="28.58" width="2.71" height="2.71"/>
      <rect class="cls-5" x="138.78" y="25.87" width="2.71" height="2.71"/>
      <rect class="cls-5" x="141.5" y="28.58" width="2.71" height="2.71"/>
      <polygon class="cls-5" points="133.36 31.3 133.36 34.01 136.07 34.01 136.07 31.3 136.07 28.58 133.36 28.58 133.36 31.3"/>
      <polygon class="cls-5" points="127.93 23.16 127.93 20.45 125.22 20.45 122.51 20.45 122.51 23.16 125.22 23.16 127.93 23.16"/>
    </g>
    <g>
      <g>
        <rect class="cls-6" x="92.66" y="50.28" width="2.71" height="2.71"/>
        <rect class="cls-6" x="95.38" y="53" width="2.71" height="2.71"/>
        <polygon class="cls-6" points="87.24 58.42 89.95 58.42 89.95 55.71 92.66 55.71 92.66 53 89.95 53 87.24 53 87.24 55.71 84.53 55.71 84.53 58.42 84.53 61.13 87.24 61.13 87.24 58.42"/>
        <polygon class="cls-6" points="79.1 69.27 81.81 69.27 81.81 66.56 84.53 66.56 84.53 63.84 84.53 61.13 81.81 61.13 81.81 63.84 79.1 63.84 79.1 66.56 76.39 66.56 76.39 69.27 76.39 71.98 79.1 71.98 79.1 69.27"/>
        <polygon class="cls-6" points="108.94 71.98 108.94 69.27 106.23 69.27 103.51 69.27 103.51 66.56 103.51 63.84 100.8 63.84 100.8 66.56 98.09 66.56 98.09 69.27 95.38 69.27 95.38 71.98 92.66 71.98 92.66 74.69 89.95 74.69 89.95 77.41 87.24 77.41 87.24 80.12 84.53 80.12 84.53 82.83 81.81 82.83 81.81 85.54 81.82 85.54 81.82 88.26 81.81 88.26 79.1 88.26 76.39 88.26 76.39 90.97 79.1 90.97 81.81 90.97 84.53 90.97 84.53 88.26 87.24 88.26 87.24 85.54 89.95 85.54 92.66 85.54 92.66 82.83 95.38 82.83 98.09 82.83 100.8 82.83 100.8 80.12 103.51 80.12 103.51 77.41 106.23 77.41 108.94 77.41 108.94 74.69 111.65 74.69 111.65 71.98 108.94 71.98"/>
        <polygon class="cls-6" points="43.83 82.83 43.83 80.12 43.83 77.41 41.12 77.41 41.12 74.69 41.12 71.98 38.41 71.98 35.69 71.98 35.69 69.27 32.98 69.27 30.27 69.27 30.27 66.56 30.27 63.84 27.56 63.84 27.56 61.13 24.85 61.13 24.85 63.84 22.13 63.84 22.13 66.56 19.42 66.56 19.42 69.27 22.13 69.27 22.13 71.98 24.85 71.98 27.56 71.98 27.56 74.69 30.27 74.69 32.98 74.69 32.98 77.41 32.98 80.12 35.69 80.12 38.41 80.12 38.41 82.83 41.12 82.83 41.12 85.54 43.83 85.54 46.54 85.54 46.54 88.26 49.26 88.26 49.26 85.54 49.26 82.83 46.54 82.83 43.83 82.83"/>
        <rect class="cls-6" x="38.41" y="131.65" width="2.71" height="2.71"/>
        <polygon class="cls-6" points="41.12 118.09 41.12 120.8 38.41 120.8 38.41 123.52 35.69 123.52 35.69 126.23 32.98 126.23 32.98 128.94 32.98 131.65 32.98 134.37 35.69 134.37 35.69 131.65 38.41 131.65 38.41 128.94 41.12 128.94 41.12 126.23 43.83 126.23 43.83 123.52 46.54 123.52 46.54 120.8 46.54 118.09 43.83 118.09 41.12 118.09"/>
        <polygon class="cls-6" points="24.85 112.67 24.85 115.38 22.13 115.38 22.13 118.09 19.42 118.09 19.42 120.8 22.13 120.8 24.85 120.8 24.85 118.09 27.56 118.09 27.56 115.38 30.27 115.38 30.27 112.67 27.56 112.67 24.85 112.67"/>
        <rect class="cls-6" x="30.27" y="109.96" width="2.71" height="2.71"/>
        <rect class="cls-6" x="32.98" y="107.24" width="2.71" height="2.71"/>
        <polygon class="cls-6" points="19.42 107.24 22.13 107.24 24.85 107.24 24.85 104.53 27.56 104.53 27.56 101.82 30.27 101.82 32.98 101.82 32.98 99.11 35.69 99.11 38.41 99.11 38.41 96.39 41.12 96.39 41.12 93.68 38.41 93.68 35.69 93.68 35.69 96.39 32.98 96.39 30.27 96.39 27.56 96.39 27.56 99.11 24.85 99.11 24.85 101.82 22.13 101.82 19.42 101.82 16.71 101.82 16.71 104.53 16.71 107.24 16.71 109.96 19.42 109.96 19.42 107.24"/>
        <rect class="cls-6" x="35.69" y="104.53" width="2.71" height="2.71"/>
        <rect class="cls-6" x="92.66" y="128.94" width="2.71" height="2.71"/>
        <rect class="cls-6" x="95.38" y="126.23" width="2.71" height="2.71"/>
        <rect class="cls-6" x="84.53" y="118.09" width="2.71" height="2.71"/>
        <polygon class="cls-6" points="103.51 115.38 100.8 115.38 100.8 112.67 98.09 112.67 95.38 112.67 95.38 109.96 92.66 109.96 92.66 107.24 89.95 107.24 87.24 107.24 87.24 104.53 84.53 104.53 84.53 107.24 84.53 109.96 84.53 112.67 87.24 112.67 87.24 109.96 89.95 109.96 89.95 112.67 92.66 112.67 92.66 115.38 95.38 115.38 95.38 118.09 92.66 118.09 92.66 120.8 95.38 120.8 95.38 123.52 98.09 123.52 98.09 126.23 100.8 126.23 100.8 123.52 103.51 123.52 103.51 120.8 106.23 120.8 106.23 118.09 108.94 118.09 108.94 115.38 106.23 115.38 103.51 115.38"/>
        <rect class="cls-6" x="89.95" y="115.38" width="2.71" height="2.71"/>
        <rect class="cls-6" x="81.81" y="115.38" width="2.71" height="2.71"/>
        <rect class="cls-6" x="87.24" y="112.67" width="2.71" height="2.71"/>
      </g>
      <g>
        <rect class="cls-2" x="89.95" y="47.57" width="2.71" height="2.71"/>
        <polygon class="cls-2" points="76.39 44.86 79.1 44.86 81.81 44.86 84.53 44.86 84.53 42.15 81.81 42.15 79.1 42.15 76.39 42.15 73.68 42.15 70.96 42.15 68.25 42.15 65.54 42.15 62.83 42.15 62.83 44.86 65.54 44.86 68.25 44.86 70.96 44.86 73.68 44.86 76.39 44.86"/>
        <polygon class="cls-2" points="87.24 47.57 89.95 47.57 89.95 44.86 87.24 44.86 84.53 44.86 84.53 47.57 87.24 47.57"/>
        <polygon class="cls-2" points="111.65 66.56 108.94 66.56 108.94 63.84 106.23 63.84 106.23 61.13 103.51 61.13 103.51 58.42 100.8 58.42 100.8 55.71 98.09 55.71 95.38 55.71 95.38 53 92.66 53 92.66 55.71 89.95 55.71 89.95 58.42 87.24 58.42 87.24 61.13 84.53 61.13 84.53 63.84 84.53 66.56 81.81 66.56 81.81 69.27 79.1 69.27 79.1 71.98 76.39 71.98 76.39 74.69 76.39 77.41 76.39 80.12 76.39 82.83 73.68 82.83 73.68 85.54 73.68 88.26 76.39 88.26 79.1 88.26 81.81 88.26 81.81 85.54 81.81 82.83 84.53 82.83 84.53 80.12 87.24 80.12 87.24 77.41 89.95 77.41 89.95 74.69 92.66 74.69 92.66 71.98 95.38 71.98 95.38 69.27 98.09 69.27 98.09 66.56 100.8 66.56 100.8 63.84 103.51 63.84 103.51 66.56 103.51 69.27 106.23 69.27 108.94 69.27 108.94 71.98 111.65 71.98 111.65 69.27 111.65 66.56"/>
        <polygon class="cls-2" points="111.65 71.98 111.65 74.69 111.65 77.41 111.65 80.12 111.65 82.83 111.65 85.54 111.65 88.26 111.65 90.97 111.65 93.68 111.65 96.39 111.65 99.11 111.65 101.82 111.65 104.53 111.65 107.24 111.65 109.96 111.65 112.67 108.94 112.67 108.94 115.38 108.94 118.09 106.23 118.09 106.23 120.8 103.51 120.8 103.51 123.52 100.8 123.52 100.8 126.23 98.09 126.23 98.09 128.94 95.38 128.94 95.38 131.65 92.66 131.65 92.66 134.37 89.95 134.37 89.95 137.08 87.24 137.08 87.24 139.79 89.95 139.79 92.66 139.79 92.66 137.08 95.38 137.08 95.38 134.37 98.09 134.37 98.09 131.65 100.8 131.65 100.8 128.94 103.51 128.94 103.51 126.23 106.23 126.23 106.23 123.52 108.94 123.52 108.94 120.8 111.65 120.8 111.65 118.09 111.65 115.38 114.36 115.38 114.36 112.67 114.36 109.96 114.36 107.24 114.36 104.53 114.36 101.82 114.36 99.11 114.36 96.39 114.36 93.68 114.36 90.97 114.36 88.26 114.36 85.54 114.36 82.83 114.36 80.12 114.36 77.41 114.36 74.69 114.36 71.98 111.65 71.98"/>
        <rect class="cls-2" x="60.11" y="42.15" width="2.71" height="2.71"/>
        <polygon class="cls-2" points="43.83 44.86 41.12 44.86 41.12 47.57 43.83 47.57 46.54 47.57 49.26 47.57 49.26 44.86 46.54 44.86 43.83 44.86"/>
        <rect class="cls-2" x="38.41" y="47.57" width="2.71" height="2.71"/>
        <polygon class="cls-2" points="32.98 109.96 32.98 112.67 30.27 112.67 30.27 115.38 27.56 115.38 27.56 118.09 24.85 118.09 24.85 120.8 22.13 120.8 22.13 123.52 24.85 123.52 24.85 126.23 27.56 126.23 30.27 126.23 30.27 123.52 32.98 123.52 32.98 120.8 35.69 120.8 35.69 118.09 38.41 118.09 38.41 115.38 38.41 112.67 38.41 109.96 38.41 107.24 35.69 107.24 35.69 109.96 32.98 109.96"/>
        <polygon class="cls-2" points="32.98 99.11 32.98 101.82 30.27 101.82 27.56 101.82 27.56 104.53 24.85 104.53 24.85 107.24 22.13 107.24 19.42 107.24 19.42 109.96 16.71 109.96 16.71 112.67 16.71 115.38 19.42 115.38 19.42 118.09 22.13 118.09 22.13 115.38 24.85 115.38 24.85 112.67 27.56 112.67 30.27 112.67 30.27 109.96 32.98 109.96 32.98 107.24 35.69 107.24 35.69 104.53 38.41 104.53 38.41 101.82 38.41 99.11 35.69 99.11 32.98 99.11"/>
        <rect class="cls-2" x="92.66" y="126.23" width="2.71" height="2.71"/>
        <rect class="cls-2" x="89.95" y="123.52" width="2.71" height="2.71"/>
        <rect class="cls-2" x="87.24" y="120.8" width="2.71" height="2.71"/>
      </g>
      <path class="cls-7" d="M81.81,96.39v-5.42h-5.42v-2.71h-2.71v-5.42h2.71v-16.27h-2.71v-2.71h-2.71v-2.71h-2.71v2.71h-2.71v21.7h-5.43v-21.7h-2.71v-2.71h-2.71v2.71h-2.71v2.71h-2.71v16.27h2.71v5.42h-2.71v2.71h-5.42v5.42h-2.71v16.27h2.71v2.71h2.71v2.71h5.42v2.71h21.71v-2.71h-19v-2.71h-2.71v-2.71h-2.71v-10.85h2.71v-2.71h2.71v-2.71h19v2.71h2.71v2.71h2.71v10.85h-2.71v2.71h-2.71v2.71h5.42v-2.71h2.71v-2.71h2.71v-16.27h-2.71Z"/>
    </g>
  </g>
  <g>
    <g>
      <polygon class="cls-4" points="92.66 39.43 89.95 39.43 87.24 39.43 87.24 42.15 84.53 42.15 84.53 44.86 87.24 44.86 89.95 44.86 89.95 47.57 92.66 47.57 92.66 50.28 95.38 50.28 95.38 47.57 95.38 44.86 95.38 42.15 95.38 39.43 92.66 39.43"/>
      <rect class="cls-4" x="65.54" y="61.13" width="2.71" height="2.71"/>
      <polygon class="cls-4" points="65.54 82.83 65.54 80.12 65.54 77.41 65.54 74.69 65.54 71.98 65.54 69.27 65.54 66.56 65.54 63.84 62.83 63.84 62.83 66.56 62.83 69.27 62.83 71.98 62.83 74.69 62.83 77.41 62.83 80.12 62.83 82.83 62.83 85.54 65.54 85.54 65.54 82.83"/>
      <polygon class="cls-4" points="46.54 44.86 49.26 44.86 51.97 44.86 54.68 44.86 57.39 44.86 60.11 44.86 60.11 42.15 57.39 42.15 54.68 42.15 51.97 42.15 49.26 42.15 46.54 42.15 43.83 42.15 41.12 42.15 41.12 44.86 43.83 44.86 46.54 44.86"/>
      <rect class="cls-4" x="51.97" y="61.13" width="2.71" height="2.71"/>
      <rect class="cls-4" x="49.26" y="63.84" width="2.71" height="2.71"/>
      <polygon class="cls-4" points="49.26 77.41 49.26 74.69 49.26 71.98 49.26 69.27 49.26 66.56 46.54 66.56 46.54 69.27 46.54 71.98 46.54 74.69 46.54 77.41 46.54 80.12 46.54 82.83 49.26 82.83 49.26 80.12 49.26 77.41"/>
      <polygon class="cls-4" points="49.26 88.26 51.97 88.26 51.97 85.54 51.97 82.83 49.26 82.83 49.26 85.54 49.26 88.26"/>
      <rect class="cls-4" x="46.54" y="88.26" width="2.71" height="2.71"/>
      <polygon class="cls-4" points="57.39 139.79 54.68 139.79 51.97 139.79 49.26 139.79 46.54 139.79 43.83 139.79 43.83 137.08 41.12 137.08 38.41 137.08 35.69 137.08 35.69 134.37 32.98 134.37 32.98 131.65 30.27 131.65 30.27 128.94 27.56 128.94 27.56 126.23 24.85 126.23 24.85 123.52 22.13 123.52 22.13 120.8 19.42 120.8 19.42 118.09 19.42 115.38 16.71 115.38 16.71 112.67 16.71 109.96 16.71 107.24 16.71 104.53 16.71 101.82 16.71 99.11 16.71 96.39 16.71 93.68 16.71 90.97 16.71 88.26 16.71 85.54 16.71 82.83 16.71 80.12 16.71 77.41 16.71 74.69 16.71 71.98 19.42 71.98 19.42 69.27 19.42 66.56 22.13 66.56 22.13 63.84 24.85 63.84 24.85 61.13 27.56 61.13 27.56 58.42 30.27 58.42 30.27 55.71 32.98 55.71 32.98 53 35.69 53 35.69 50.28 38.41 50.28 38.41 47.57 41.12 47.57 41.12 44.86 38.41 44.86 35.69 44.86 35.69 47.57 32.98 47.57 32.98 50.28 30.27 50.28 30.27 53 27.56 53 27.56 55.71 24.85 55.71 24.85 58.42 22.13 58.42 22.13 61.13 19.42 61.13 19.42 63.84 16.71 63.84 16.71 66.56 14 66.56 14 69.27 14 71.98 11.28 71.98 11.28 74.69 11.28 77.41 11.28 80.12 11.28 82.83 11.28 85.54 11.28 88.26 11.28 90.97 11.28 93.68 11.28 96.39 11.28 99.11 11.28 101.82 11.28 104.53 11.28 107.24 11.28 109.96 11.28 112.67 14 112.67 14 115.38 14 118.09 14 120.8 16.71 120.8 16.71 123.52 19.42 123.52 19.42 126.23 22.13 126.23 22.13 128.94 24.85 128.94 24.85 131.65 27.56 131.65 27.56 134.37 30.27 134.37 30.27 137.08 32.98 137.08 32.98 139.79 35.69 139.79 35.69 142.5 38.41 142.5 41.12 142.5 43.83 142.5 43.83 145.22 46.54 145.22 49.26 145.22 51.97 145.22 54.68 145.22 57.39 145.22 60.11 145.22 62.82 145.22 62.82 142.5 62.82 139.79 60.11 139.79 57.39 139.79"/>
      <polygon class="cls-4" points="49.26 120.8 51.97 120.8 51.97 118.09 49.26 118.09 46.54 118.09 46.54 120.8 49.26 120.8"/>
      <rect class="cls-4" x="43.83" y="115.38" width="2.71" height="2.71"/>
      <rect class="cls-4" x="60.11" y="112.67" width="2.71" height="2.71"/>
      <polygon class="cls-4" points="41.12 112.67 41.12 109.96 41.12 107.24 41.12 104.53 41.12 101.82 41.12 99.11 41.12 96.39 38.41 96.39 38.41 99.11 38.41 101.82 38.41 104.53 38.41 107.24 38.41 109.96 38.41 112.67 38.41 115.38 41.12 115.38 43.83 115.38 43.83 112.67 41.12 112.67"/>
      <rect class="cls-4" x="57.39" y="104.53" width="2.71" height="2.71"/>
      <rect class="cls-4" x="54.68" y="101.82" width="2.71" height="2.71"/>
      <polygon class="cls-4" points="43.83 93.68 43.83 90.97 41.12 90.97 41.12 93.68 41.12 96.39 43.83 96.39 43.83 93.68"/>
      <polygon class="cls-4" points="84.53 139.79 81.81 139.79 79.1 139.79 76.39 139.79 73.68 139.79 70.96 139.79 68.25 139.79 65.54 139.79 62.83 139.79 62.83 142.5 62.83 145.22 65.54 145.22 68.25 145.22 70.96 145.22 73.68 145.22 76.39 145.22 79.1 145.22 81.81 145.22 84.53 145.22 84.53 142.5 87.24 142.5 89.95 142.5 89.95 139.79 87.24 139.79 84.53 139.79"/>
      <rect class="cls-4" x="65.54" y="112.67" width="2.71" height="2.71"/>
      <rect class="cls-4" x="62.83" y="109.96" width="2.71" height="2.71"/>
      <rect class="cls-4" x="68.25" y="104.53" width="2.71" height="2.71"/>
      <rect class="cls-4" x="70.96" y="101.82" width="2.71" height="2.71"/>
    </g>
    <g>
      <polygon class="cls-3" points="92.66 39.43 95.38 39.43 95.38 36.72 92.66 36.72 92.66 34.01 95.37 34.01 95.37 31.3 95.37 28.58 92.66 28.58 92.66 31.3 92.66 34.01 89.95 34.01 89.95 36.72 87.24 36.72 87.24 39.43 89.95 39.43 92.66 39.43"/>
      <polygon class="cls-3" points="98.09 25.87 98.09 23.16 98.09 20.45 95.38 20.45 95.38 23.16 95.38 25.87 95.38 28.58 98.09 28.58 98.09 25.87"/>
      <polygon class="cls-3" points="108.95 15.02 106.23 15.02 103.52 15.02 100.81 15.02 100.81 17.73 103.52 17.73 106.23 17.73 108.95 17.73 111.66 17.73 111.66 15.02 108.95 15.02"/>
      <rect class="cls-3" x="130.65" y="20.45" width="2.71" height="2.71"/>
      <rect class="cls-3" x="136.07" y="20.45" width="2.71" height="2.71"/>
      <rect class="cls-3" x="133.36" y="17.73" width="2.71" height="2.71"/>
      <rect class="cls-3" x="133.36" y="23.16" width="2.71" height="2.71"/>
      <rect class="cls-3" x="98.1" y="17.73" width="2.71" height="2.71"/>
      <rect class="cls-3" x="111.66" y="17.73" width="2.71" height="2.71"/>
      <polygon class="cls-3" points="114.37 20.45 114.37 23.16 117.08 23.16 119.8 23.16 119.8 20.45 117.08 20.45 114.37 20.45"/>
      <polygon class="cls-3" points="108.94 77.41 106.23 77.41 103.51 77.41 103.51 80.12 100.8 80.12 100.8 82.83 98.09 82.83 95.38 82.83 92.66 82.83 92.66 85.54 89.95 85.54 87.24 85.54 87.24 88.26 84.53 88.26 84.53 90.97 81.81 90.97 81.81 93.68 81.81 96.39 84.53 96.39 84.53 99.11 84.53 101.82 84.53 104.53 87.24 104.53 87.24 107.24 89.95 107.24 92.66 107.24 92.66 109.96 95.38 109.96 95.38 112.67 98.09 112.67 100.8 112.67 100.8 115.38 103.51 115.38 106.23 115.38 108.94 115.38 108.94 112.67 111.65 112.67 111.65 109.96 111.65 107.24 111.65 104.53 111.65 101.82 111.65 99.11 111.65 96.39 111.65 93.68 111.65 90.97 111.65 88.26 111.65 85.54 111.65 82.83 111.65 80.12 111.65 77.41 111.65 74.69 108.94 74.69 108.94 77.41"/>
      <path class="cls-3" d="M89.95,50.28v-2.71h-5.42v-2.71h-35.27v2.71h-8.14v2.71h-5.42v2.71h-2.71v2.71h-2.71v2.71h-2.71v5.42h2.71v5.42h5.42v2.71h5.42v5.42h2.71v5.42h2.71v-16.27h2.71v-2.71h2.71v-2.71h5.42v2.71h2.71v21.7h2.71v-21.7h2.72v-2.71h5.42v2.71h2.71v2.71h5.42v-2.71h2.71v-2.71h2.71v-5.42h2.71v-2.71h5.42v-2.71h-2.71Z"/>
      <polygon class="cls-3" points="35.69 123.52 38.41 123.52 38.41 120.8 41.12 120.8 41.12 118.09 43.83 118.09 43.83 115.38 41.12 115.38 38.41 115.38 38.41 118.09 35.69 118.09 35.69 120.8 32.98 120.8 32.98 123.52 30.27 123.52 30.27 126.23 27.56 126.23 27.56 128.94 30.27 128.94 30.27 131.65 32.98 131.65 32.98 128.94 32.98 126.23 35.69 126.23 35.69 123.52"/>
      <polygon class="cls-3" points="27.56 96.39 30.27 96.39 32.98 96.39 35.69 96.39 35.69 93.68 38.41 93.68 41.12 93.68 41.12 90.97 43.83 90.97 46.54 90.97 46.54 88.26 46.54 85.54 43.83 85.54 41.12 85.54 41.12 82.83 38.41 82.83 38.41 80.12 35.69 80.12 32.98 80.12 32.98 77.41 32.98 74.69 30.27 74.69 27.56 74.69 27.56 71.98 24.85 71.98 22.13 71.98 22.13 69.27 19.42 69.27 19.42 71.98 16.71 71.98 16.71 74.69 16.71 77.41 16.71 80.12 16.71 82.83 16.71 85.54 16.71 88.26 16.71 90.97 16.71 93.68 16.71 96.39 16.71 99.11 16.71 101.82 19.42 101.82 22.13 101.82 24.85 101.82 24.85 99.11 27.56 99.11 27.56 96.39"/>
      <path class="cls-3" d="M89.95,126.23v-2.71h-2.71v-2.71h-2.71v-2.71h-2.71v-2.71h-2.71v2.71h-5.42v2.71h-27.13v2.71h-2.71v2.71h-2.71v2.71h-2.71v2.71h2.71v2.71h-2.71v-2.71h-2.71v5.42h8.14v2.71h43.41v-2.71h2.71v-2.71h2.71v-8.14h-2.71Z"/>
      <polygon class="cls-3" points="95.38 120.8 92.66 120.8 92.66 118.09 89.95 118.09 89.95 115.38 87.24 115.38 87.24 112.67 84.53 112.67 81.81 112.67 81.81 115.38 84.53 115.38 84.53 118.09 87.24 118.09 87.24 120.8 89.95 120.8 89.95 123.52 92.66 123.52 92.66 126.23 95.38 126.23 98.09 126.23 98.09 123.52 95.38 123.52 95.38 120.8"/>
      <rect class="cls-3" x="92.66" y="115.38" width="2.71" height="2.71"/>
      <rect class="cls-3" x="89.95" y="112.67" width="2.71" height="2.71"/>
      <rect class="cls-3" x="87.24" y="109.96" width="2.71" height="2.71"/>
    </g>
    <path class="cls-1" d="M76.39,101.82v-2.71h-2.71v-2.71h-19v2.71h-2.71v2.71h-2.71v10.85h2.71v2.71h2.71v2.71h19v-2.71h2.71v-2.71h2.71v-10.85h-2.71ZM57.39,107.24v-2.71h-2.71v-2.71h2.71v2.71h2.71v2.71h-2.71ZM68.25,115.38h-2.71v-2.71h-2.71v2.73s0-.02,0-.02h-2.71v-2.71h2.71v-2.71h2.72v2.71h2.71v2.71ZM73.68,104.53h-2.71v2.71h-2.71v-2.71h2.71v-2.71h2.71v2.71Z"/>
  </g>
</svg>